<svg xmlns="http://www.w3.org/2000/svg" viewBox="0 0 151 151"><defs><style>.cls-1{isolation:isolate;}.cls-2{fill:#bfc0fc;}.cls-3,.cls-4,.cls-8{fill:#8f96ef;}.cls-4,.cls-6{opacity:0.35;}.cls-4,.cls-6,.cls-8{mix-blend-mode:multiply;}.cls-5,.cls-6{fill:#381e6b;}.cls-7{fill:#fff;}.cls-8{opacity:0.15;}</style></defs><g class="cls-1"><g id="Layer_2" data-name="Layer 2"><g id="Layer_1-2" data-name="Layer 1"><path class="cls-2" d="M10.48,0H141a10,10,0,0,1,10,10V141a10,10,0,0,1-10,10H10A10,10,0,0,1,0,141V10.48A10.48,10.48,0,0,1,10.48,0Z"/><path class="cls-3" d="M129.47,71v23.1a11.7,11.7,0,0,0,0-23.1Z"/><path class="cls-4" d="M129.47,87.29v6.82a11.66,11.66,0,0,0,9.3-15A11.71,11.71,0,0,1,129.47,87.29Z"/><rect class="cls-5" x="123.03" y="67.03" width="6.43" height="31.06" rx="2.79"/><path class="cls-6" d="M126.68,86.55h-.86A2.79,2.79,0,0,1,123,83.76V95.3a2.79,2.79,0,0,0,2.79,2.79h.86a2.79,2.79,0,0,0,2.79-2.79V83.76A2.79,2.79,0,0,1,126.68,86.55Z"/><path class="cls-3" d="M21.53,71v23.1a11.7,11.7,0,0,1,0-23.1Z"/><path class="cls-4" d="M12.23,79.15a11.66,11.66,0,0,0,9.3,15V87.29A11.71,11.71,0,0,1,12.23,79.15Z"/><rect class="cls-5" x="21.53" y="67.03" width="6.43" height="31.06" rx="2.79" transform="translate(49.5 165.12) rotate(180)"/><path class="cls-6" d="M25.18,86.55h-.86a2.79,2.79,0,0,1-2.79-2.79V95.3a2.79,2.79,0,0,0,2.79,2.79h.86A2.79,2.79,0,0,0,28,95.3V83.76A2.79,2.79,0,0,1,25.18,86.55Z"/><rect class="cls-7" x="27.97" y="41.34" width="95.06" height="81.44" rx="29.17"/><path class="cls-8" d="M93.86,116.47H57.14A29.17,29.17,0,0,1,28,87.31V93.6a29.17,29.17,0,0,0,29.17,29.17H93.86A29.17,29.17,0,0,0,123,93.6V87.31A29.17,29.17,0,0,1,93.86,116.47Z"/><rect class="cls-3" x="36.77" y="55.07" width="77.25" height="57.62" rx="24.26"/><path class="cls-4" d="M89.75,108H61A24.26,24.26,0,0,1,36.77,83.7v4.72A24.26,24.26,0,0,0,61,112.68H89.75A24.27,24.27,0,0,0,114,88.42V83.7A24.27,24.27,0,0,1,89.75,108Z"/><path class="cls-5" d="M56.55,97.25c8.14,9.77,30.85,10.12,38.21-.41a4.93,4.93,0,0,0-4.13-7.67H60.39A5,5,0,0,0,56.55,97.25Z"/><path class="cls-5" d="M53.44,75.49a6.24,6.24,0,1,1,6.23,6.23A6.24,6.24,0,0,1,53.44,75.49Z"/><path class="cls-6" d="M59.67,78.58a6.23,6.23,0,0,1-6-4.66,6.24,6.24,0,1,0,12.05,0A6.25,6.25,0,0,1,59.67,78.58Z"/><path class="cls-7" d="M61.13,73.56c.73.69,1.69.86,2.13.39s.22-1.42-.51-2.11-1.69-.86-2.14-.39S60.4,72.87,61.13,73.56Z"/><path class="cls-5" d="M98.05,75.49a6.24,6.24,0,1,0-6.24,6.23A6.24,6.24,0,0,0,98.05,75.49Z"/><path class="cls-6" d="M91.81,78.58a6.24,6.24,0,0,1-6-4.66,6.24,6.24,0,1,0,12,0A6.25,6.25,0,0,1,91.81,78.58Z"/><path class="cls-7" d="M93.27,73.56c.73.69,1.69.86,2.14.39s.21-1.42-.52-2.11-1.69-.86-2.13-.39S92.54,72.87,93.27,73.56Z"/><polygon class="cls-5" points="75.63 40.63 55.3 28.23 75.63 54.44 95.95 28.23 75.63 40.63"/><polygon class="cls-6" points="95.95 28.23 75.63 46.28 55.3 28.23 75.63 54.44 95.95 28.23"/></g></g></g></svg>